<svg width="407" height="120" viewBox="0 0 407 120" fill="none" xmlns="http://www.w3.org/2000/svg">
<path fill-rule="evenodd" clip-rule="evenodd" d="M38.5294 0.600586C17.2944 0.600586 0.0800781 17.815 0.0800781 39.0499C0.0800781 60.2849 17.2944 77.4993 38.5294 77.4993H126.986C148.221 77.4993 165.436 60.2849 165.436 39.0499C165.436 17.815 148.221 0.600586 126.986 0.600586H38.5294ZM123.838 34.2437H97.4043V42.6545H123.838V34.2437ZM42.1335 34.2437H68.5675V42.6545H42.1335V34.2437ZM344.985 3.22412H295.823V74.8734H344.985V46.7926H355.329V74.8734H404.491V3.22412H355.329V33.708H344.985V3.22412ZM169.802 3.82028H219.962V32.5757L242.791 3.82028H287.464V22.8291L272.229 40.4509L287.464 57.6738V75.4695H242.791L219.962 48.0966V75.4695H169.802V3.82028ZM11.6058 112.319V119.386H14.5021V112.319C19.0203 112.145 22.1483 108.988 22.1483 104.905C22.1483 100.821 19.0203 97.6349 14.5021 97.4611V92.1609H11.6058V97.4611C7.08756 97.6349 3.95956 100.792 3.95956 104.876C3.95956 108.959 7.08756 112.145 11.6058 112.319ZM11.6058 100.068V109.712C8.68052 109.712 6.85585 107.54 6.85585 104.876C6.85585 102.24 8.68052 100.068 11.6058 100.068ZM19.252 104.905C19.252 107.54 17.4273 109.712 14.5021 109.712V100.068C17.4273 100.068 19.252 102.24 19.252 104.905ZM23.8836 107.946C23.8836 110.436 25.5345 112.435 28.7783 112.435C31.1533 112.435 32.5435 111.103 33.2676 110.06L33.6151 112.145H35.9322V103.196C35.9322 99.3726 33.8758 97.3742 29.9948 97.3742C26.1137 97.3742 24.7525 99.7202 24.7525 99.7202V101.603H26.6351C26.6351 101.603 27.5039 99.8361 29.9079 99.8361C32.138 99.8361 33.0359 100.966 33.0359 103.138V104.036C33.0359 104.036 31.5588 103.63 29.7341 103.63C25.5634 103.63 23.8836 105.484 23.8836 107.946ZM33.0359 106.99C33.0359 108.351 31.6167 110.089 29.2417 110.089C27.5908 110.089 26.7219 109.423 26.7219 107.946C26.7219 106.874 27.3881 105.831 29.7341 105.831C31.6746 105.831 33.0359 106.237 33.0359 106.237V106.99ZM42.4036 97.6638H39.5073V112.145H42.4036V105.107L49.3257 112.145H51.3531V110.118L45.7343 104.528L50.9187 99.5464V97.6638H49.0361L42.4036 104.209V97.6638ZM53.6593 119.386H55.6867L66.4899 99.5464V97.6638H64.6073L59.5967 107.106L54.4992 97.6638H52.4718V99.6912L58.0327 109.828L53.6593 117.359V119.386ZM66.112 109.626V112.145H67.1836C70.2827 112.145 71.4991 109.452 71.615 105.831L71.7887 99.9809H76.5387V112.145H79.435V97.6638H69.24L69.0373 105.513C68.9504 108.554 68.2553 109.51 66.4306 109.626H66.112ZM86.0335 97.6638H83.1372V112.145H88.9009C93.0136 112.145 94.8672 110.002 94.8672 107.251C94.8672 104.586 92.9846 102.588 88.9298 102.588H86.0335V97.6638ZM88.6981 109.828H86.0335V104.905H88.6981C90.6966 104.905 91.8261 105.687 91.8261 107.28C91.8261 109.104 90.6097 109.828 88.6981 109.828ZM98.6946 100.126V112.145H101.591V100.126H106.225V97.6638H94.0606V100.126H98.6946ZM107.075 104.876C107.075 109.307 109.623 112.435 114.576 112.435C119.123 112.435 120.571 110.06 120.571 110.06V108.177H118.689C118.689 108.177 117.878 109.944 114.576 109.944C111.651 109.944 110.116 108.148 109.971 105.31H120.745C120.745 105.31 120.861 104.644 120.861 103.746C120.861 100.097 118.892 97.3742 114.229 97.3742C109.594 97.3742 107.075 100.734 107.075 104.876ZM118.023 103.138H110.116C110.521 101.226 111.651 99.8361 114.257 99.8361C116.806 99.8361 118.023 101.255 118.023 103.138ZM126.471 100.126V112.145H129.367V100.126H134.001V97.6638H121.837V100.126H126.471ZM145.164 97.6638H142.268V112.145H145.164V105.107L152.086 112.145H154.114V110.118L148.495 104.528L153.679 99.5464V97.6638H151.797L145.164 104.209V97.6638ZM155.301 104.876C155.301 109.017 158.023 112.435 162.657 112.435C167.262 112.435 170.014 109.017 170.014 104.876C170.014 100.734 167.262 97.3742 162.657 97.3742C158.023 97.3742 155.301 100.734 155.301 104.876ZM167.118 104.876C167.118 107.685 165.698 109.973 162.657 109.973C159.616 109.973 158.197 107.685 158.197 104.876C158.197 102.124 159.616 99.8361 162.657 99.8361C165.698 99.8361 167.118 102.124 167.118 104.876ZM175.568 102.066L179.883 108.67H181.766L186.11 102.008V112.145H189.006V97.6638H185.82L180.955 105.339L176.002 97.6638H172.816V112.145H175.568V102.066ZM205.169 97.6638H192.714V112.145H195.611V100.126H202.272V112.145H205.169V97.6638ZM211.776 97.6638H208.879V112.145H214.643C218.756 112.145 220.609 110.002 220.609 107.251C220.609 104.586 218.727 102.588 214.672 102.588H211.776V97.6638ZM214.44 109.828H211.776V104.905H214.44C216.439 104.905 217.568 105.687 217.568 107.28C217.568 109.104 216.352 109.828 214.44 109.828ZM228.25 105.773C228.627 109.51 231.146 112.435 235.288 112.435C239.72 112.435 242.355 109.017 242.355 104.876C242.355 100.734 239.72 97.3742 235.288 97.3742C231.349 97.3742 228.858 100.01 228.337 103.456H225.904V97.6638H223.008V112.145H225.904V105.773H228.25ZM239.459 104.876C239.459 107.598 238.156 109.828 235.288 109.828C232.421 109.828 231.118 107.598 231.118 104.876C231.118 102.182 232.421 99.9809 235.288 99.9809C238.156 99.9809 239.459 102.182 239.459 104.876ZM247.814 100.126V112.145H250.71V100.126H255.345V97.6638H243.18V100.126H247.814ZM256.194 104.876C256.194 109.307 258.743 112.435 263.696 112.435C268.243 112.435 269.691 110.06 269.691 110.06V108.177H267.808C267.808 108.177 266.997 109.944 263.696 109.944C260.77 109.944 259.235 108.148 259.091 105.31H269.865C269.865 105.31 269.981 104.644 269.981 103.746C269.981 100.097 268.011 97.3742 263.348 97.3742C258.714 97.3742 256.194 100.734 256.194 104.876ZM267.142 103.138H259.235C259.641 101.226 260.77 99.8361 263.377 99.8361C265.926 99.8361 267.142 101.255 267.142 103.138ZM272.86 97.6638V119.386H275.757V109.886C276.857 111.45 278.566 112.435 280.796 112.435C285.054 112.435 287.574 109.017 287.574 104.876C287.574 100.734 285.054 97.3742 280.796 97.3742C278.566 97.3742 276.828 98.3589 275.728 99.9519L275.467 97.6638H272.86ZM284.677 104.876C284.677 107.685 283.258 109.973 280.217 109.973C277.465 109.973 275.757 107.685 275.757 104.876C275.757 102.095 277.465 99.8361 280.217 99.8361C283.258 99.8361 284.677 102.095 284.677 104.876ZM293.307 97.6638H290.411V112.145H293.307V105.918H300.259V112.145H303.155V97.6638H300.259V103.456H293.307V97.6638ZM309.755 97.6638H306.859V112.145H312.623C316.735 112.145 318.589 110.002 318.589 107.251C318.589 104.586 316.706 102.588 312.652 102.588H309.755V97.6638ZM323.658 97.6638H320.761V112.145H323.658V97.6638ZM312.42 109.828H309.755V104.905H312.42C314.418 104.905 315.548 105.687 315.548 107.28C315.548 109.104 314.331 109.828 312.42 109.828ZM326.367 110.263V112.145H328.249L332.681 106.671L337.199 112.145H339.226V110.118L334.476 104.847L339.139 99.5464V97.6638H337.257L332.883 102.993L328.481 97.6638H326.454V99.6912L331.088 104.789L326.367 110.263ZM351.632 97.6638H348.735V112.145H351.632V105.918H358.583V112.145H361.479V97.6638H358.583V103.456H351.632V97.6638ZM364.14 107.946C364.14 110.436 365.791 112.435 369.035 112.435C371.41 112.435 372.8 111.103 373.524 110.06L373.872 112.145H376.189V103.196C376.189 99.3726 374.133 97.3742 370.252 97.3742C366.371 97.3742 365.009 99.7202 365.009 99.7202V101.603H366.892C366.892 101.603 367.761 99.8361 370.165 99.8361C372.395 99.8361 373.293 100.966 373.293 103.138V104.036C373.293 104.036 371.816 103.63 369.991 103.63C365.82 103.63 364.14 105.484 364.14 107.946ZM373.293 106.99C373.293 108.351 371.874 110.089 369.499 110.089C367.848 110.089 366.979 109.423 366.979 107.946C366.979 106.874 367.645 105.831 369.991 105.831C371.931 105.831 373.293 106.237 373.293 106.237V106.99ZM379.392 119.386H381.419L392.222 99.5464V97.6638H390.34L385.329 107.106L380.232 97.6638H378.204V99.6912L383.765 109.828L379.392 117.359V119.386ZM397.185 97.6638H394.289V112.145H397.185V105.107L404.107 112.145H406.134V110.118L400.516 104.528L405.7 99.5464V97.6638H403.817L397.185 104.209V97.6638Z" fill="#102D69"/>
</svg>
